<?xml version="1.0" encoding="utf-8"?>
<!-- Generator: Adobe Illustrator 23.0.2, SVG Export Plug-In . SVG Version: 6.00 Build 0)  -->
<svg version="1.1"
	 id="Layer_1" xmlns:cc="http://creativecommons.org/ns#" xmlns:dc="http://purl.org/dc/elements/1.1/" xmlns:rdf="http://www.w3.org/1999/02/22-rdf-syntax-ns#" xmlns:svg="http://www.w3.org/2000/svg"
	 xmlns="http://www.w3.org/2000/svg" xmlns:xlink="http://www.w3.org/1999/xlink" x="0px" y="0px" viewBox="0 0 274.2 141.9"
	 enable-background="new 0 0 274.2 141.9" xml:space="preserve">
<g>
	<path fill="#ACB8C8" d="M168.3,0c11.1,5.7,17.6,16.6,17.6,30c0,11.2-5.8,18.7-14.7,25.3c0,0-6.6,5.1-10.2,7.5l26.9,31.8
		c0.8-1.1,11.8-11.1,11.8-11.1h69.9V56.2h-70V31.5h74.7V0H168.3z"/>
	<polygon fill="#ACB8C8" points="205.6,115.9 227.2,141.9 274.2,142 274.2,108.4 213.2,108.3 	"/>
	<path fill="#ACB8C8" d="M129.2,0H56.8L0,141.9l48.1-0.1l9.3-26.3h45c-1.6-4.9-2.5-10.3-2.5-16.4c0-18.5,13.2-30.5,25.6-38.9
		c-5.8-6.7-14.2-16.9-14.2-30.8C111.3,16.3,117.7,5.6,129.2,0z M64.6,84.1l16.7-49.2l16.1,49.2H64.6z"/>
	<path fill="#ACB8C8" d="M151.5,39.7c3.7-2.6,6.6-5.7,6.6-9.8c0.1-5.4-3.5-9.5-9.4-9.5c-6.2,0-9.5,4.1-9.5,9.5
		c0,4.3,3.5,8.3,7.5,13.1C148.3,42,151.5,39.7,151.5,39.7z"/>
	<path fill="#ACB8C8" d="M129.9,100.3c0,9.2,8.8,18.8,18.2,19.5c6.4,0.5,13.1-2,18.2-6.5l-25.2-32
		C134.6,86.4,129.9,92.3,129.9,100.3z"/>
</g>
</svg>
