<?xml version="1.0" encoding="utf-8"?>
<!-- Generator: Adobe Illustrator 23.0.2, SVG Export Plug-In . SVG Version: 6.00 Build 0)  -->
<svg version="1.1" id="Layer_1" xmlns="http://www.w3.org/2000/svg" xmlns:xlink="http://www.w3.org/1999/xlink" x="0px" y="0px"
	 viewBox="0 0 418.1 108.4" style="enable-background:new 0 0 418.1 108.4;" xml:space="preserve">
<style type="text/css">
	.st0{fill:#ACB8C8;}
</style>
<path class="st0" d="M405.5,108.4H418V23.6h-12.5V108.4z M218,23.6v64.2c0,0.8,0,8.2-8,8.2h-73.8c-8,0-8-7.4-8-8.2V23.6H70.4v84.8
	H83V36.1h32.6V91c0,6.8,4.6,17.4,17.7,17.4h79.4c13.2,0,17.8-10.6,17.8-17.4s0-64.3,0-67.3L218,23.6L218,23.6z M372.5,23.6
	l-55.4,73.2l-55.4-73.2h-19.6v84.8h12.6V34.9l55.3,73.5h14.3l55.1-73.5v73.5H392V23.6H372.5z M0,0v36.1h45.2v72.3h12.6V23.6H12.6
	V12.3h405.5V0L0,0L0,0z"/>
</svg>
