<?xml version="1.0" encoding="utf-8"?>
<!-- Generator: Adobe Illustrator 18.1.1, SVG Export Plug-In . SVG Version: 6.00 Build 0)  -->
<svg version="1.1" id="Layer_1" xmlns="http://www.w3.org/2000/svg" xmlns:xlink="http://www.w3.org/1999/xlink" x="0px" y="0px"
	 viewBox="194 220.5 1000.3 353.5" enable-background="new 194 220.5 1000.3 353.5" xml:space="preserve">
<path fill="#FFFFFF" d="M694,238.3c3.7-6,9.8-12.3,16.4-15c11.3-5.2,26.5-2.9,35.8,5.2c9,8.1,13.5,19.2,11.4,31.7
	c2.2-0.4,4.4-1.8,6.7-2.6c13.9-3.9,28.6,0.3,37.5,12.2c6.7,8.5,8.4,21.7,4.4,32c-2,5.2-5.4,9.8-9.8,13.8l0.4,0.4
	c12.9,0.6,25.6,10.7,29.6,23c4.3,12.4,0.5,25.7-8.6,34.8c-7.4,7.3-17,9.9-27.6,9.7H597.8c-15.8,0.3-28-6.7-34.6-20.7
	c-5.2-12.1-2.6-27.5,7-36.7c6.1-6.4,13.7-9,21.9-10.3c-9.3-8.6-13.8-20.4-11.2-33.1c1.9-10.3,10.6-20.6,20.6-24.2
	c8.8-3.5,20.8-2.9,28.9,1.9l0.3-0.4c-2.4-14,3.7-26.5,15.3-34.3c10.3-7,26.8-6.8,36.9,0.6C687.6,229.1,691.3,233.9,694,238.3"/>
<path fill="#acb8c8" d="M748.6,243.5c4.1,8.3,1.7,19.3-2.6,26.8l-33.4,75.2l-0.3,0.4l-12.1-76.2c-1-7.3,6.9-10.4,11.5-14
	c-0.2-1.1-1.4-1-2.2-1.5l-11.3-0.1l-0.3-0.3c0.1-9.5,5.2-18.2,13.8-22.8c9-5.2,21.7-3.8,29.5,2.9C744.4,236.5,747,239.8,748.6,243.5
	"/>
<path fill="#acb8c8" d="M687,240.9c2.7,5.1,4.3,10.8,3.3,17.1l-13.6,87.3c0.1,0.1-0.1,0.2-0.2,0.3l-3.5-7l-34.1-76.2
	c-3.2-9.8-0.2-20.1,6.9-27.1c7.2-7.3,19.1-9.3,28.5-5.3C679.3,232,684.1,236,687,240.9"/>
<path fill="#acb8c8" d="M798,277.6c4.6,7.8,3.6,19.7-1.5,27c-3.2,5.1-8.4,7.7-12.8,11l-70.7,48.6h-0.2l0.8-2.3l37.5-84.6
	c5.6-10,16.3-15,27.7-13.5C786.5,265.1,794.2,270.1,798,277.6"/>
<path fill="#acb8c8" d="M637.3,277.2l39,87h-0.6L597,309.9c-8-6.7-11.3-16.9-8.6-27.1c2-7.7,8.4-14.8,15.9-17.6
	C616.7,260.7,630.7,265.5,637.3,277.2"/>
<path fill="#acb8c8" d="M818.5,339c3.9,8.3,2.4,19.6-3.2,26.7c-5.6,6.7-13,10.4-21.7,10.2l-83.9,0.1l70.3-48.9
	c6.9-4.4,17.3-5.2,24.8-1.6C810.5,327.7,816,333.3,818.5,339"/>
<path fill="#acb8c8" d="M570.1,339c-3.9,8.3-2.4,19.6,3.2,26.7c5.6,6.7,13,10.4,21.7,10.2l83.9,0.1L608.7,327
	c-6.9-4.4-17.3-5.2-24.8-1.6C578.1,327.7,572.6,333.3,570.1,339"/>
<path fill="#acb8c8" d="M419.4,426.1c-40.8,0-73.9,33.2-73.9,73.9c0,40.8,33.1,73.9,73.9,73.9c40.8,0,73.9-33.2,73.9-73.9
	C493.4,459.3,460.2,426.1,419.4,426.1 M419.4,559.4c-32.7,0-59.4-26.6-59.4-59.4c0-32.7,26.6-59.4,59.4-59.4
	c32.7,0,59.4,26.6,59.4,59.4C478.8,532.8,452.2,559.4,419.4,559.4"/>
<path fill="#acb8c8" d="M1056.7,501c-4-2.1-28.1-14.5-31.6-16.3c-12.7-6.5-17.1-12.2-17.1-21.9c0-13.5,11-22.1,28.2-22.1
	c10.1,0,19.8,4.4,25.5,7.6c1,0.6,2.3,0.9,3.5,0.9c4,0,7.3-3.3,7.3-7.3c0-2.7-1.5-5-3.6-6.3c-7.2-4-19.4-9.5-32.6-9.5
	c-25.2,0-42.7,15.1-42.7,36.7c0,19.4,12.7,28.5,25.2,34.9c3.5,1.8,27.9,14.4,31.6,16.3c9.6,5,15,12.6,15,21.3
	c0,11.7-9.9,24.1-28.2,24.1c-17.8,0-31.6-11.9-35.4-15.6l-1.1-1.1l-10.8,9.8l1.3,1.3c4.8,4.7,22.2,20.2,46.1,20.2
	c26.7,0,42.7-19.6,42.7-38.6C1079.7,521.2,1071.4,508.7,1056.7,501"/>
<path fill="#acb8c8" d="M267.9,440.7c15.9,0,30.8,6.2,42,17.4c2.7,2.7,7.7,2.7,10.3,0c1.4-1.4,2.1-3.2,2.1-5.1
	c0-1.9-0.7-3.8-2.1-5.1l-0.9-0.9c-13.8-13.4-32.1-20.8-51.4-20.8c-40.7,0-73.9,33.2-73.9,73.9c0,40.8,33.2,73.9,73.9,73.9
	c21.5,0,40.9-9.2,54.4-23.9L312,539.8c-10.9,12.1-26.6,19.7-44.1,19.7c-32.7,0-59.4-26.6-59.4-59.4
	C208.5,467.4,235.2,440.7,267.9,440.7"/>
<path fill="#acb8c8" d="M768.9,440.7c15.9,0,30.8,6.2,42,17.4c2.7,2.7,7.7,2.7,10.3,0c1.4-1.4,2.2-3.2,2.2-5.1
	c0-1.9-0.8-3.8-2.2-5.1l-0.9-0.9c-13.9-13.4-32.1-20.8-51.4-20.8c-40.8,0-73.9,33.2-73.9,73.9c0,40.8,33.2,73.9,73.9,73.9
	c21.5,0,40.9-9.2,54.4-23.9L813,539.8c-10.9,12.1-26.6,19.7-44.1,19.7c-32.7,0-59.4-26.6-59.4-59.4
	C709.6,467.4,736.2,440.7,768.9,440.7"/>
<path fill="#acb8c8" d="M643.7,426.1c-2.7,0-4.9,1.8-6.1,4c-1.2,2.3-43.5,106.9-43.5,106.9c0,0-42.3-104.6-43.5-106.9
	c-1.2-2.3-3.3-4-6.1-4c-3.2,0-5.6,2.3-6.4,5.3c-0.8,3-24.7,134.7-24.7,134.7c-0.1,0.4-0.1,0.9-0.1,1.3c0,3.6,3,6.6,6.6,6.6
	c3.2,0,5.9-2.3,6.4-5.3L547,456c0,0,39.9,98.5,41,100.9c1.2,2.3,3.3,4.2,6.1,4.2c2.8,0,4.9-1.8,6.1-4.2
	c1.2-2.3,41.1-100.9,41.1-100.9l21.5,117.2h13.3c0,0-25.1-138.8-26-141.7C649.3,428.5,646.9,426.1,643.7,426.1"/>
<path fill="#acb8c8" d="M906.5,426.2c-2.8,0-4.9,1.8-6.1,4.1c-1.2,2.3-54.7,134.6-54.7,134.6c-0.3,0.8-0.5,1.6-0.5,2.6
	c0,3.6,2.9,6.6,6.6,6.6c2.8,0,5.1-1.7,6.1-4.2l20.8-51.1h55.8l22.2,54.5h14.2c0,0-57-140.6-58.2-142.9
	C911.5,427.9,909.3,426.1,906.5,426.2 M884.5,504.1l22-54l22,54H884.5z"/>
<path fill="#acb8c8" d="M1187,426.9h-82.3c-4,0-7.3,3.3-7.3,7.3c0,4,3.3,7.3,7.3,7.3h34.5v131.7h13.3V441.5h34.5
	c4,0,7.3-3.3,7.3-7.3C1194.3,430.2,1191,426.9,1187,426.9"/>
</svg>
