<?xml version="1.0" encoding="utf-8"?>
<!-- Generator: Adobe Illustrator 23.0.2, SVG Export Plug-In . SVG Version: 6.00 Build 0)  -->
<svg version="1.1"
	 id="svg3063" xmlns:cc="http://creativecommons.org/ns#" xmlns:dc="http://purl.org/dc/elements/1.1/" xmlns:inkscape="http://www.inkscape.org/namespaces/inkscape" xmlns:rdf="http://www.w3.org/1999/02/22-rdf-syntax-ns#" xmlns:sodipodi="http://sodipodi.sourceforge.net/DTD/sodipodi-0.dtd" xmlns:svg="http://www.w3.org/2000/svg"
	 xmlns="http://www.w3.org/2000/svg" xmlns:xlink="http://www.w3.org/1999/xlink" x="0px" y="0px"
	 viewBox="108.676 158.123 782.648 1138.754" enable-background="new 108.676 158.123 782.648 1138.754" xml:space="preserve">
<path id="path3124" inkscape:connector-curvature="0" fill="#ACB8C8" d="M484.235,158.125c-1.618-0.012-3.28,0.035-4.891,0.052
	c-49.136,0.521-98.851,12.071-144.668,33.933c0,0,7.124-1.828,11.99-1.789c0.695,0.005,1.318,0.012,1.893,0.105
	c4.717,0.758,9.194,3.2,12.989,6.102c5.366,4.104,7.314,11.972,13.094,15.467c4.695,2.838,10.614,3.301,16.092,3.577
	c11.768,0.592,23.308-3.61,35.076-4.208c11.886-0.604,23.927-1.059,35.707,0.631c17.407,2.497,34.657,7.139,50.852,13.994
	c19.077,8.073,36.842,19.313,53.587,31.512c16.408,11.954,30.853,26.435,45.488,40.508c21.176,20.363,38.187,45.12,61.107,63.497
	c9.41,7.545,19.06,13.936,30.921,18.833c16.944,6.996,53.64,12.047,53.64,12.047l15.356,3.84c7.981,1.325,15.215,3.154,21.613,5.419
	l0.369,0.105c5.848,2.096,10.984,4.598,15.356,7.471c-11.862-39.17-32.409-76.518-55.06-109.899
	C697.985,215.679,586.094,158.837,484.235,158.125L484.235,158.125z"/>
<path id="path3122" inkscape:connector-curvature="0" fill="#ACB8C8" d="M277.933,226.147C247.565,248.512,220.329,276.15,198,308.9
	c-34.247,50.229-59.108,111.648-59.108,172.87v284.504c-0.023,6.281,3.488,9.469,7.941,9.469h86.243
	c-11.383-5.589-19.471-13.028-23.927-21.99c-33.168-66.689,72.908-184.385,237.853-274.719c7.062-5.174,13.725-10.625,13.515-12.732
	c-0.265-2.667-10.938,1.684-10.938,1.684c-78.701,31.202-148.089,80.367-211.613,133.624c0,0-12.714-57.093-18.09-85.225
	c-3.316-17.354-7.707-34.588-9.255-52.188c-1.426-16.211,0-48.82,0-48.82s0.768-32.811,5.679-48.82
	c5.143-16.761,24.506-48.347,24.506-48.347s15.784-22.209,28.134-34.564c3.14-3.141,6.316-9.228,6.417-13.889
	c0.082-3.831-2.42-6.164-3.313-9.89c-1.162-4.847-2.323-10.695-2.156-15.678c0.128-3.818,0.922-7.024,2.576-10.469
	C273.656,231.24,276.095,228.27,277.933,226.147z"/>
<path id="path3094" inkscape:connector-curvature="0" fill="#ACB8C8" d="M820.427,481.296
	c-25.64,63.639-112.275,150.228-237.696,217.534c-72.535,38.927-138.362,63.686-193.995,76.913h424.014
	c5.151,0,7.836-2.5,7.836-9.312C820.511,681.438,820.445,580.655,820.427,481.296L820.427,481.296z"/>
<path id="path3096" inkscape:connector-curvature="0" fill="#ACB8C8" d="M721.878,474.93
	c-45.988-0.075-138.758,32.335-236.434,87.644c-143.515,81.267-208.191,162.286-183.32,177.342
	c33.147,20.066,139.608,10.937,288.338-74.966c61.037-35.254,176.032-120.529,160.97-176.764
	C749.024,479.199,738.511,474.957,721.878,474.93z M500.484,574.885c0,0,32.292,61.775-17.669,99.745
	c-68.281,51.894-118.638-3.367-118.638-3.367C397.792,635.494,445.197,601.197,500.484,574.885z"/>
<g id="text3143" transform="matrix(5.6956046,0,0,5.7603967,-1277.173,570.00134)">
	<path id="path3167" inkscape:connector-curvature="0" sodipodi:nodetypes="sscccsccscccccccccccccccccccccsscc" fill="#ACB8C8" d="
		M270.544,118.306c1.315,0,2.322-0.278,3.023-0.833c0.7-0.555,1.051-1.355,1.051-2.399v-0.1c0-0.977-0.336-1.752-1.007-2.324
		c-0.672-0.572-1.723-0.858-3.155-0.858h-7.96v6.515H270.544z M267.839,104.923c1.315,0,2.315-0.252,3.001-0.757
		c0.686-0.505,1.029-1.279,1.03-2.323v-0.102c0-0.976-0.321-1.725-0.964-2.247c-0.643-0.522-1.606-0.783-2.89-0.783h-5.52v6.213
		H267.839z M254.216,90.832h15.726c1.928,0,3.578,0.27,4.951,0.808c1.373,0.539,2.455,0.948,3.362,1.844
		c0.613,0.707,1.381,1.312,1.834,2.529c0.351,0.943,0.533,2.392,0.533,3.604v0.281c0,2.054-0.785,3.635-1.676,4.898
		s-2.17,1.427-3.543,2.1c2.608,0.415,5.419,2.529,6.514,3.859c1.095,1.33,1.642,3.19,1.642,5.58v0.102
		c0,3.064-1.015,5.454-3.044,7.171c-2.029,1.717-6.805,2.576-10.485,2.576h-15.815V90.832z"/>
	<path id="path3169" inkscape:connector-curvature="0" sodipodi:nodetypes="ccccccccccccc" fill="#ACB8C8" d="M286.906,90.832
		h26.678v7.384H295.5v6.523h15.409v6.922H295.5v6.994h18.491v7.53h-27.085V90.832z"/>
	<path id="path3171" inkscape:connector-curvature="0" sodipodi:nodetypes="ccccccc" fill="#ACB8C8" d="M317.722,90.832h9.203
		v27.863h16.08v7.491h-25.283V90.832z"/>
	<path id="path3187" inkscape:connector-curvature="0" sodipodi:nodetypes="ccccccc" fill="#ACB8C8" d="M346.553,90.832h9.203
		v27.863h16.08v7.491h-25.283V90.832z"/>
</g>
<g id="g3255">
	<path id="path3157" inkscape:connector-curvature="0" sodipodi:nodetypes="ccccccccc" fill="#ACB8C8" d="M169.542,897.255h-60.867
		v-42.463h175.353v42.463h-62.652v161.781h-51.835V897.255z"/>
	<path id="path3159" inkscape:connector-curvature="0" sodipodi:nodetypes="ccccccccccccc" fill="#ACB8C8" d="M376.865,988
		l-24.934-69.832L325.374,988H376.865z M333.084,853.94h42.06l83.066,205.096h-54.641l-11.793-30.053h-80.383l-12.477,30.053H248.39
		L333.084,853.94z"/>
	<path id="path3163" inkscape:connector-curvature="0" fill="#ACB8C8" d="M744.28,851.342c-14.188,0.454-29.73,4.289-41.649,9.469
		c-12.714,5.525-23.156,12.495-32.552,22.095c-9.397,9.601-14.311,20.244-19.562,33.144c-5.252,12.9-6.679,26.598-6.679,41.14v0.631
		c0,14.543,1.427,28.18,6.679,40.982c5.252,12.803,12.452,23.957,21.666,33.459c9.213,9.503,20.206,17.04,32.92,22.568
		c12.713,5.528,26.516,8.26,41.439,8.26c14.924,0,28.726-2.731,41.439-8.26c12.713-5.528,23.787-13.126,33.183-22.727
		c9.396-9.6,16.729-20.824,21.981-33.721c5.252-12.898,6.363-26.644,6.363-41.192v-0.578c0-14.549-1.111-28.183-6.363-40.982
		c-5.252-12.799-12.508-23.953-21.718-33.458c-9.211-9.506-20.154-17.044-32.868-22.569c-12.713-5.525-26.562-8.259-41.491-8.259
		C746.135,851.342,745.225,851.31,744.28,851.342z M746.488,896.005c7.905,0,15.148,1.649,21.667,4.998
		c6.518,3.349,12.138,7.852,16.88,13.468c4.743,5.616,8.422,12.07,10.991,19.412c2.568,7.343,3.838,15.1,3.839,23.306v0.684
		c-0.001,8.207-1.271,15.962-3.839,23.306c-2.569,7.343-6.132,13.8-10.675,19.307c-4.544,5.507-10.097,9.86-16.618,13.1
		c-6.522,3.24-13.708,4.84-21.613,4.84c-7.899,0-15.145-1.652-21.666-4.998c-6.522-3.345-12.081-7.851-16.723-13.467
		c-4.643-5.616-8.265-12.066-10.834-19.412c-2.568-7.347-3.839-15.152-3.839-23.358v-0.631c0-8.214,1.212-15.963,3.682-23.306
		c2.469-7.343,6.032-13.8,10.675-19.307c4.644-5.508,10.196-9.86,16.618-13.1C731.455,897.605,738.583,896.005,746.488,896.005z"/>
	<path id="path3189" inkscape:connector-curvature="0" sodipodi:nodetypes="sssccsssssssccsss" fill="#ACB8C8" d="M450.217,957.46
		c0-26.021,6.804-55.108,24.604-74.08c19.46-20.743,50.655-31.985,79.092-31.985c55.646,0,81.337,38.511,81.337,38.511
		l-39.565,28.569c0,0-10.617-12.06-17.551-15.773c-7.04-3.769-15.254-6.705-23.204-5.952c-14.837,1.406-30.584,7.877-40.457,19.046
		c-9.265,10.481-13.683,25.9-13.089,39.879c0.795,18.739,7.969,39.354,22.013,51.781c7.807,6.905,21.122,8.63,30.046,8.63
		c13.238,0,20.424-2.607,29.451-7.142c6.103-3.066,15.766-13.094,15.766-13.094l41.351,29.76c0,0-31.004,36.901-85.08,36.901
		c-23.777,0-49.678-5.688-66.257-19.713C464.156,1022.057,450.217,1005.145,450.217,957.46L450.217,957.46z"/>
</g>
<g id="g3217" transform="matrix(0.62500655,0,0,0.62500655,405.36411,842.34472)">
	<g id="text3219">
		<path id="path3231" inkscape:connector-curvature="0" fill="#ACB8C8" d="M725.692,661.445h-11.862v-3.686h27.765v3.686h-11.864
			v31.667h-4.039V661.445z"/>
		<path id="path3233" inkscape:connector-curvature="0" fill="#ACB8C8" d="M743.702,657.759h4.037l12.875,19.294l12.873-19.294
			h4.039v35.353h-3.987v-28.634l-12.875,18.939h-0.202l-12.873-18.891v28.586h-3.887V657.759z"/>
	</g>
</g>
</svg>
