<?xml version="1.0" encoding="utf-8"?>
<!-- Generator: Adobe Illustrator 23.0.2, SVG Export Plug-In . SVG Version: 6.00 Build 0)  -->
<svg version="1.1" id="Layer_1" xmlns="http://www.w3.org/2000/svg" xmlns:xlink="http://www.w3.org/1999/xlink" x="0px" y="0px"
	 viewBox="0 0 625.8 181.801" enable-background="new 0 0 625.8 181.801" xml:space="preserve">
<rect x="399.3" y="3.5" fill="#ACB8C8" width="48.7" height="174.8"/>
<polygon fill="#ACB8C8" points="577.9,3.5 577.9,95.9 506,3.5 460.8,3.5 460.8,178.3 508.7,178.3 508.7,82.4 583.4,178.3 
	625.8,178.3 625.8,3.5 "/>
<path fill="#ACB8C8" d="M338.3,135.8V3.5l0,0h-48.4v33.2C273.6,16.2,248,3.1,217.7,3.1c-46.7,0-82.9,31.6-89.9,73.1H90.6v35.4h34.5
	v21.2c-7.2,4.7-16.2,7.2-28,7.2c-27.7,0-47.4-20.2-47.4-48.4v-0.5h0.2c0-26.7,19.5-47.9,44.7-47.9c9.9-0.1,19.7,2.3,28.4,7
	c6-13.9,14.9-26.2,26.2-36.3C134,5.1,116.5,0,94.2,0h-0.1C39.9,0,0,40,0,90.9v0.5c0,52.9,40.7,90.4,95.1,90.4
	c23.9,0.1,47.2-7,67-20.4c15,10.9,34,17.2,55.1,17.2c30.4,0,56.3-13.4,72.6-34.1v33.7h96.6v-42.4L338.3,135.8L338.3,135.8z
	 M260.7,91.4L260.7,91.4c-0.1,24.4-17.2,45.1-43,45.1c-25.6,0-43.1-21.2-43.1-45.6v-0.5c0-24.4,17.1-45.1,42.7-45.1
	c25.8,0,43.4,21.2,43.4,45.6V91.4z"/>
</svg>
