<?xml version="1.0" encoding="utf-8"?>
<!-- Generator: Adobe Illustrator 23.0.2, SVG Export Plug-In . SVG Version: 6.00 Build 0)  -->
<svg version="1.1" id="layer" xmlns="http://www.w3.org/2000/svg" xmlns:xlink="http://www.w3.org/1999/xlink" x="0px" y="0px"
	 viewBox="0 0 600.1 127.4" style="enable-background:new 0 0 600.1 127.4;" xml:space="preserve">
<style type="text/css">
	.st0{fill:#ACB8C8;}
</style>
<path class="st0" d="M597.6,48h-1v-1.8c0.7,0,1.5-0.1,2,0.2c0.5,0.3,0.4,0.9,0.3,1.2c-0.2,0.3-0.4,0.4-0.7,0.4
	C597.9,48,597.7,48,597.6,48z M598.4,48.7c0.4,0,0.7-0.2,1-0.4c0.8-0.7,0.6-1.7,0.3-2.2c-0.6-0.7-1.2-0.6-1.8-0.7h-2.2v5.8h0.9v-2.5
	h1l1.5,2.5h1L598.4,48.7z M166.1,47.7c0-1.2,1-2.2,2.1-2.2c1.2,0,2.2,1,2.2,2.2v15.1h22V47.7c0-1.2,1-2.2,2.2-2.2
	c1.1,0,2.1,1,2.1,2.2v34.4c0,1.2-0.9,2.2-2.1,2.2c-1.2,0-2.2-1-2.2-2.2V66.8h-22v15.3c0,1.2-1,2.2-2.2,2.2s-2.1-1-2.1-2.2V47.7z
	 M217.2,81.8V48c0-1.2,1-2.2,2.1-2.2H243c1.1,0,2,0.9,2,2s-0.9,2-2,2h-21.5v13h19c1.1,0,2,0.9,2,2s-0.9,2-1.9,2l0,0h-19v13.4h21.8
	c1.1,0,2,0.9,2,2s-0.9,2-1.9,2l0,0h-23.9C218.1,84,217.2,83,217.2,81.8 M288,70l-8.8-19.5L270.4,70H288z M261.1,81.2l15.4-33.9
	c0.5-1.2,1.4-1.9,2.7-1.9h0.2c1.3,0,2.2,0.7,2.7,1.9l15.4,33.8c0.2,0.4,0.3,0.8,0.3,1.1c0,1.1-0.9,2.1-2.1,2.1c-1,0-1.7-0.7-2.1-1.6
	l-4-8.8h-20.9l-4,8.9c-0.4,0.9-1.1,1.5-2.1,1.5c-1.1,0-2-0.9-2-2l0,0C260.8,82,260.9,81.6,261.1,81.2z M329.1,80
	c9.6,0,15.8-6.6,15.8-15v-0.1c0-8.5-6.1-15.1-15.8-15.1h-8.9V80H329.1L329.1,80z M315.8,48c0-1.2,1-2.2,2.1-2.2H329
	c12,0,20.2,8.2,20.2,19v0.1c0,10.8-8.3,19.1-20.2,19.1h-11.1c-1.2,0-2.1-1-2.1-2.2V48L315.8,48z M366.2,79.4c-0.5-0.4-0.8-1-0.8-1.6
	c0-1.2,0.9-2.1,2.1-2.1c0.5,0,1,0.2,1.3,0.5c3.6,3.1,7.2,4.5,12,4.5c5.1,0,8.5-2.7,8.5-6.5v-0.1c0-3.5-1.9-5.6-9.9-7.2
	c-8.8-1.9-12.8-4.7-12.8-11v-0.1c0-6,5.3-10.4,12.5-10.4c5,0,8.7,1.3,12.1,3.8c0.4,0.3,0.9,0.9,0.9,1.7c0,1.1-0.9,2.1-2.1,2.1
	c-0.4,0-0.9-0.1-1.3-0.4c-3.2-2.3-6.3-3.3-9.8-3.3c-5,0-8.1,2.7-8.1,6.2v0.1c0,3.6,2,5.6,10.3,7.4c8.5,1.9,12.4,5,12.4,10.8v0.1
	c0,6.6-5.4,10.8-13,10.8C375.1,84.5,370.5,82.8,366.2,79.4 M425.9,66.6c6.3,0,10.4-3.4,10.4-8.4v-0.1c0-5.5-4.1-8.3-10.2-8.3h-9.6
	v16.8H425.9z M412.2,48c0-1.2,1-2.2,2.1-2.2h12.1c8.6,0,14.3,4.6,14.3,12.1V58c0,8.2-6.9,12.5-15,12.5h-9.2v11.6
	c0,1.2-1,2.2-2.2,2.2s-2.1-1-2.1-2.2C412.2,82.1,412.2,48,412.2,48z M479.3,70l-8.8-19.5L461.7,70H479.3z M452.4,81.2l15.4-33.9
	c0.5-1.2,1.4-1.9,2.7-1.9h0.2c1.3,0,2.2,0.7,2.7,1.9l15.4,33.8c0.2,0.4,0.3,0.8,0.3,1.1c0,1.1-0.9,2.1-2.1,2.1l0,0
	c-1,0-1.7-0.7-2.1-1.6l-4-8.8H460l-4,8.9c-0.4,0.9-1.1,1.5-2.1,1.5c-1.1,0-2-0.9-2-2l0,0C452.2,82,452.2,81.6,452.4,81.2z M503.5,65
	v-0.1c0-10.8,8.1-19.7,19.3-19.7c6.1,0,10.1,2,13.6,5c0.5,0.4,0.8,1.1,0.9,1.7c0,1.2-1,2.1-2.2,2.1c-0.5,0-1-0.2-1.4-0.5
	c-2.9-2.6-6.3-4.4-10.9-4.4c-8.4,0-14.7,6.9-14.7,15.7v0.1c0,8.8,6.4,15.8,14.7,15.8c4.7,0,8.1-1.6,11.3-4.6
	c0.4-0.4,0.9-0.6,1.4-0.6c1.1,0,2.1,1,2.1,2.1c0,0.7-0.3,1.2-0.7,1.5c-3.8,3.4-7.9,5.6-14.1,5.6C511.6,84.6,503.5,76,503.5,65
	 M555.1,81.8V48c0-1.2,1-2.2,2.1-2.2h23.7c1.1,0,2,0.9,2,2s-0.9,2-2,2h-21.5v13h19c1.1,0,2,0.9,2,2s-0.9,2-2,2h-19v13.4h21.8
	c1.1,0,2,0.9,2,2s-0.9,2-1.9,2l0,0h-23.9C556.1,84,555.1,83,555.1,81.8"/>
<path class="st0" d="M128.3,62.9c1.5,20.9-8.2,32.7-14,41c-9.1,9.6-20.6,22.7-49.7,23.4c-24.8,1-36.9-9.9-47.1-19.4
	C4.2,93.2,0.7,84.5,0,62.9c-0.1-13.2,5-26.5,13.9-38.1C26.4,7.1,46.2,1.2,64.5,0c19.2-0.7,34.5,9,45,19.5
	C122.9,33.6,127,45.7,128.3,62.9"/>
</svg>
