<?xml version="1.0" encoding="utf-8"?>
<!-- Generator: Adobe Illustrator 23.0.2, SVG Export Plug-In . SVG Version: 6.00 Build 0)  -->
<svg version="1.1" id="Layer_1" xmlns="http://www.w3.org/2000/svg" xmlns:xlink="http://www.w3.org/1999/xlink" x="0px" y="0px"
	 viewBox="0 0 1265.8 261.4" style="enable-background:new 0 0 1265.8 261.4;" xml:space="preserve">
<style type="text/css">
	.st0{fill:#ACB8C8;}
</style>
<g>
	<path class="st0" d="M1212.9,1.3c10.4-2.3,22-1.8,31.5,3.5c7.4,4,13,11.2,14.8,19.4c1.8,8.3,0.9,17.3-3.7,24.6
		c-4.9,8.3-14,13.4-23.3,14.9c-9,1.4-18.7,0.7-26.9-3.6c-8.8-4.2-15.2-13-16.5-22.6c-0.8-6.8-0.3-14,2.9-20.2
		C1195.8,9.1,1204,3.4,1212.9,1.3z"/>
	<path class="st0" d="M110.9,13.2c13.6-0.5,27.3-0.6,40.6,2.1c15.5,3,31.1,9.1,42,20.9c11.7,12,16.1,29.9,13.3,46.2
		c-1.6,9.6-6.8,19-15.2,24.3c-5.4,3.5-11.9,5.3-18.4,5.4c-9.1,0.4-18.7-2-25.5-8.3c-8.8-7.7-11.8-20.5-9.4-31.7
		c0.8-4.8,2.9-9.2,4.3-13.8c1.7-5.5-0.2-12.1-5.1-15.4c-4.1-3.1-9.5-3.8-14.5-4.4c-13.6-0.6-27.2,5.2-36.7,14.9
		c-16,15.9-22.8,38.8-23.7,60.8c-0.7,21.5,3,44.1,15.2,62.2c7.8,11.9,20,20.9,33.8,24.6c15.6,3.9,32.6,2.4,47-4.8
		c13.1-6.6,22.5-18.6,28.9-31.6c2-3.6,3.5-8.2,7.7-9.8c3.4-1,7.9-1,10.5,1.9c4.4,4.6,5,11.5,4.9,17.6c0.4,22.1-8.2,44.6-24.4,60
		c-16.1,16.1-38.7,24.4-61.1,26c-12.1,0.6-24.4,0.4-36.4-1.9c-20-3.7-39.4-12.4-54.1-26.6c-16.7-15.5-27-37-31.6-59.1
		c-3.5-17.5-4.1-35.6-2.1-53.4c3-23.3,12-46.1,27-64.4C39.5,41,54.4,29.7,71.1,22.7C83.9,17.4,97.4,14.5,110.9,13.2z"/>
	<path class="st0" d="M224.9,18.1c8.1-1,16.3-0.4,24.5-0.6c12.2,0.2,24.5-0.5,36.7,0.5c2.4,1.7,3.3,4.5,3.1,7.3
		c0.1,24.9,0,49.8,0.1,74.8c9.2-14.8,24.3-26.2,41.7-29c15-2,31.2,0.2,43.6,9.4c13.8,9.9,20.4,27.3,20.7,43.8c0.1,32,0,64,0,96
		c0.2,6.7,0.7,13.7,4.4,19.5c1.8,3.3,5,6.4,4.5,10.5c0,2.9-2.7,5-5.6,4.8c-18,0.3-36.1,0.1-54.1,0.1c-5.8-0.1-11.8,0.4-17.5-0.6
		c-3.3-3.2-2.3-8.5,0.4-11.8c5.8-7.6,6.3-17.5,6.4-26.6c0.1-29.3,0-58.6,0-88c-0.1-6.4-0.8-13.2-4.2-18.8c-3.1-5.1-9.2-7.7-15-7.3
		c-5.4,0.4-10.4,3.1-14.1,6.9c-7.4,7.3-10.9,17.9-10.8,28.2c-0.1,21,0,42.1,0,63.1c0,8.7-0.2,17.3,0.4,26c0.4,5.4,2,10.8,5,15.3
		c1.9,2.9,4.4,6.1,3.2,9.8c-0.4,3.1-3.8,4-6.4,3.8c-21.4,0-42.7,0-64.1,0c-2.1,0-4.1-0.3-6.2-0.8c-0.7-0.9-1.4-1.8-2.1-2.7
		c-1.3-5.8,3.8-9.6,5.8-14.5c2.8-6.6,2.8-13.9,3-21c0.1-46.7,0-93.3,0-140c-0.2-13.6,0.9-27.8-4.4-40.6c-1.8-3.9-4-8.2-2.8-12.6
		C221.1,20.8,223.3,19.6,224.9,18.1z"/>
	<g>
		<path class="st0" d="M613,21.9c1.7-3.4,5.8-4.3,9.3-4.3c16-0.1,32.1,0,48.1-0.1c2.8,0,5.6,0.3,8.4,0.6c1.3,1.4,2.7,3,2.5,5.1
			c0.3,24.4-0.2,48.9,0.2,73.3c5-6.5,10.3-13,17.4-17.3c10.2-6.6,22.3-9.8,34.4-9.5c16.1-0.5,32.5,5.2,44.2,16.5
			c13.8,12.9,20.9,31.4,23.9,49.8c2.4,16.4,2.3,33.2-0.6,49.6c-3.3,18.1-11.4,35.6-24.5,48.7c-14.6,14.4-34.6,22.6-54.8,24.6
			c-13.4,1.6-27,0.9-40.2-1.9c-7.3-1.6-14.4-4.2-21.9-4.6c-10.5-0.7-19.5,7.1-30.1,5.9c-5.8,0.2-11-5-10.7-10.7
			c-0.3-13,1.3-26,1.2-39.1c0.2-49,0.1-97.9,0-146.9c0.1-9.8-1.3-19.8-5.7-28.7C612.3,29.5,612.2,25.5,613,21.9z M698.5,104.5
			c-6,0.7-11.7,4.5-14.2,10.1c-2.9,6.5-3,13.7-3,20.7c0,17.3,0,34.7,0,52c0.1,9.2-0.4,18.6,1.1,27.7c2,8,5.9,16.2,13.2,20.5
			c7.3,4.5,17.3,3.7,24-1.6c8.1-6.3,12.3-16.2,14.8-25.8c4.6-18.5,4.4-37.9,2.1-56.8c-2-12.9-5.2-26.2-13.5-36.5
			C717.3,107.7,707.8,103.2,698.5,104.5z"/>
	</g>
	<g>
		<path class="st0" d="M496.9,70.2c22.2-1.8,45.6,1.3,64.7,13.3c14.5,8.9,25.6,22.8,31.7,38.5c6.9,17.2,8.4,36.1,7,54.4
			c-1.8,20.3-9.5,40.5-23.6,55.5c-14.1,15.1-33.8,24.3-54.2,26.9c-20.3,2.5-41.6,0.3-60.1-8.8c-16.1-7.7-29.6-20.9-37.6-36.8
			c-7.5-15.1-10.8-32-10.4-48.8c-0.3-22.1,6-44.8,20.2-62.1C449.5,83.3,473.1,72.3,496.9,70.2z M495.3,94.2
			c-5.2,3.8-8.6,9.6-10.8,15.6c-4.7,12.7-6.1,26.2-6.7,39.6c-0.2,20.7,0.8,41.7,6.5,61.8c2.8,8.8,6.7,17.9,14.2,23.6
			c6.5,5,16.4,5.1,22.7-0.2c6.5-5.5,9.9-13.9,12-22c5.2-19.9,4.7-40.8,3.7-61.2c-1.3-14-3.1-28.3-8.6-41.4c-3-6.7-7.3-13.5-14-17
			C508.4,89.8,500.7,90.2,495.3,94.2z"/>
	</g>
	<g>
		<path class="st0" d="M835.6,84.6c12.8-9.7,29-13.4,44.7-14.7c20.8-1.1,42.5-0.8,61.8,8c12.9,5.6,23.6,16.1,28.7,29.2
			c3.2,8,4.5,16.7,4.5,25.4c0,25.7-0.2,51.3-0.2,77c0.1,8-0.9,16.3,2,23.9c1.8,4.7,8.4,6.5,8.2,12c0.5,4.5-3.6,7.4-7.2,9.1
			c-9.9,4.4-21,4.5-31.7,4.4c-8.2,0-17.2-1.3-23.5-7c-4.8-4.4-6.1-11.2-6.5-17.5c-7.5,12-19.8,20.7-33.5,24
			c-11.1,2.5-22.9,2.3-33.8-0.9c-16.5-4.8-30.2-18.3-34.4-35c-3.2-13-2.4-27.4,3.8-39.4c6.6-13.2,19.4-22,32.7-27.8
			c19.1-8.1,39.8-11.6,60.3-13.7c1.7-0.4,5.3,0.5,5.1-2.2c0-10.4,0.4-21.1-2.5-31.2c-2-6.6-6.3-13-12.9-15.7
			c-7.3-3.1-15.9-3.2-23.3-0.2c-4.6,1.8-8.4,6.8-7.2,11.9c1.3,6.7,3.8,13.4,2.7,20.3c-1.2,10.2-10,18.6-20,20.3
			c-7.6,1.1-15.9,0.6-22.4-3.9c-9.1-5.9-12.8-17.6-11.6-28C820.1,101.6,826.6,91.3,835.6,84.6z M880.2,178.3
			c-9.4,8.3-13.4,22-10.5,34.1c1.3,6,4.9,11.7,10.3,14.7c5.3,3,12,3.2,17.6,1.2c9.4-3.3,15.8-12.5,17.6-22c1-7.9,0.3-15.9,0.6-23.9
			c-0.3-6.9,1.3-13.7,0.1-20.5C903.2,165.1,889.9,169,880.2,178.3z"/>
	</g>
	<path class="st0" d="M1102.3,71.5c11.9-1.9,24.6-1.4,35.8,3.5c13.4,5.7,23.5,18,27.4,32c4.5,13.8,2.5,28.4,2.8,42.5
		c0.2,25.6-0.6,51.3,0.6,76.9c0,6.8,3.1,12.9,6.9,18.3c2.7,3.5,2,10.5-3.4,10.6c-21.4,0.4-42.8,0-64.2,0.2c-2.7,0.1-5.4-0.1-8.1-0.7
		c-0.8-1-1.5-2-2.3-2.9c-1-6.3,4.8-10.2,6.4-15.7c2.6-7.6,2.5-15.7,2.6-23.7c0-28.6,0.1-57.3,0-86c-0.3-6.8-1.3-14.2-6.1-19.5
		c-4.9-5-13-6.2-19.4-3.6c-7.2,2.8-12.1,9.6-15,16.5c-3.6,8.7-3.3,18.3-3.2,27.6c0,22.3,0,44.7,0,67c0.2,9.1-0.2,18.9,5.1,26.8
		c2.3,3.3,5,7.4,3.1,11.6c-1.2,2.8-4.6,2.4-7.1,2.6c-21.7,0-43.4,0.1-65.1-0.1c-2.7,0.3-4.8-1.4-6.3-3.4c-1-6.3,4.6-10.3,6.4-15.8
		c2.6-6.9,2.2-14.5,2.5-21.8c0.1-29.3,0-58.6,0-88c-0.2-8.6,0.4-17.4-1.1-25.9c-0.9-5.7-4.6-10.3-6.8-15.5c-1.4-3.6-0.5-7.8,2.7-10
		c2.5-0.6,5-1.2,7.7-1.1c16.4,0.1,32.7,0,49.1,0c2.9,0,7,0.9,7.6,4.3c1.2,7.7,0.3,15.6,0.5,23.4
		C1069.9,86.4,1085.1,74.8,1102.3,71.5z"/>
	<path class="st0" d="M1187.2,79.1c0.8-4,5.5-5.1,9.1-5.2c18,0.1,36-0.1,53.9,0.1c3.6-0.1,6.7,2.7,6.6,6.4c0.2,47-0.1,94,0.1,141
		c0.1,7.7,1.6,15.7,6.4,21.9c2,2.4,2.6,5.6,2.5,8.7c-1.6,1.9-3.7,3.6-6.3,3.4c-22,0.1-44.1,0-66.1,0c-2.6,0-6.3-0.8-6.6-3.9
		c-1.2-4.8,2.7-8.3,4.7-12.1c4.3-8.2,4-17.9,4.1-26.9c-0.1-32.7,0-65.3-0.1-98c-0.2-7.9-0.7-16.2-4.8-23.2
		C1188.8,87.5,1185.7,83.5,1187.2,79.1z"/>
</g>
</svg>
