<?xml version="1.0" encoding="utf-8"?>
<!-- Generator: Adobe Illustrator 23.0.2, SVG Export Plug-In . SVG Version: 6.00 Build 0)  -->
<svg version="1.1" id="Layer_1" xmlns="http://www.w3.org/2000/svg" xmlns:xlink="http://www.w3.org/1999/xlink" x="0px" y="0px"
	 viewBox="0 0 160.2 100.8" style="enable-background:new 0 0 160.2 100.8;" xml:space="preserve">
<style type="text/css">
	.st0{fill:#ACB8C8;}
</style>
<g>
	<path class="st0" d="M160.2,50.4c0,27.8-35.9,50.4-80.1,50.4c-13,0-25.4-2-36.2-5.4l14.2-52.9H65L58.7,66h10.2l7.2-26.9H59
		l5.4-20.5c0.7-2.6,3.4-6.4,7.2-6.4c2.2,0,5,1.1,5.1,2.5c-2.9,0-5.2,2.7-5.2,5.7s2.4,5.4,5.2,5.4c1.8,0,6-2.1,5.8-6.7
		c-0.1-2.8-1.8-8.5-10.9-8.7C61,10.3,53.8,19.7,51.1,29.3c-1.5,5.7-5.4,19.2-8.6,31.5l-8.4,30.9C13.5,82.5,0,67.5,0,50.4
		C0,22.6,35.9,0,80.1,0C124.4,0,160.2,22.6,160.2,50.4L160.2,50.4z M20.1,66l3.3-12.4c17,0.3,20.3-3.9,22.7-14.5
		c1.7-7.5-2.5-13.2-9.9-13.2H15.8l-0.9,3.4h4.5L9.6,66H20.1L20.1,66z M29.8,29.3c5.3-0.2,7.4,1.1,5.3,9.8
		c-2.7,11.3-5.9,11.1-10.9,11.1L29.8,29.3L29.8,29.3z M155.7,43.9c0-3.1-2.3-5.5-5.1-5.5c-2.3,0-5.5,1.5-7.7,5.2l1.1-4.4h-13.9
		l-0.9,3.4h3.7L126.7,66h10.2l3.8-14.2c1.5-4.4,4.3-9.5,5.1-8.8c-0.9,4.2,2.2,6.4,4.9,6.4S155.7,46.9,155.7,43.9L155.7,43.9z
		 M108.7,53.6h17.1c0.1-0.4,0.2-0.7,0.3-1.2c1.9-8.9-2.6-14.6-9.6-14.6c-7.6,0-14.7,2.6-17.7,14.6c-2,8,2.3,14.4,9.9,14.6
		c6.8,0.2,13.2-1.7,16.4-10.9h-10.4l-0.6,2.3c-1.2,4.7-2.9,5.2-4.7,5.2c-1.8,0-2.7-2.3-2-5.2L108.7,53.6L108.7,53.6z M110.6,46.4
		c0.8-2.9,2.5-5.3,4.7-5.2c2.2,0,2.7,2.3,2,5.2l-1,3.6h-6.7L110.6,46.4L110.6,46.4z M95.1,62.7h-8.7l15-23.6H79.5l-0.9,3.4h8.7
		L72.6,66h21.6L95.1,62.7L95.1,62.7z"/>
</g>
</svg>
